<?xml version="1.0" encoding="utf-8"?>
<!-- Generator: Adobe Illustrator 25.3.0, SVG Export Plug-In . SVG Version: 6.00 Build 0)  -->
<svg version="1.1" id="Layer_1" xmlns="http://www.w3.org/2000/svg" xmlns:xlink="http://www.w3.org/1999/xlink" x="0px" y="0px"
	 viewBox="0 0 275.1 18.9" style="enable-background:new 0 0 275.1 18.9;" xml:space="preserve">
<g>
	<g>
		<path d="M3.4,2.9h2.2l6.5,9.4L10,10.6H11V2.9h2.5v12h-2.2L4.8,5.4L6.9,7H5.9v7.8H3.4V2.9z"/>
		<path d="M15.5,2.9H18v12h-2.5V2.9z"/>
		<path d="M22.3,14.3c-0.9-0.5-1.5-1.2-2-2.1s-0.7-2-0.7-3.3v0c0-1.3,0.2-2.4,0.7-3.3c0.5-0.9,1.1-1.6,2-2.1c0.9-0.5,1.9-0.7,3-0.7
			c1,0,1.8,0.2,2.6,0.6s1.4,0.9,1.8,1.6c0.5,0.7,0.7,1.4,0.8,2.3l0,0.1h-2.4l0-0.1c-0.1-0.4-0.3-0.8-0.5-1.2
			c-0.2-0.3-0.6-0.6-0.9-0.8c-0.4-0.2-0.8-0.3-1.3-0.3c-0.6,0-1.2,0.2-1.7,0.5s-0.8,0.8-1.1,1.4c-0.3,0.6-0.4,1.3-0.4,2.2v0
			c0,0.8,0.1,1.6,0.4,2.2c0.3,0.6,0.6,1.1,1.1,1.4c0.5,0.3,1,0.5,1.7,0.5c0.5,0,0.9-0.1,1.3-0.3c0.4-0.2,0.7-0.4,0.9-0.8
			s0.4-0.7,0.5-1.2l0-0.1h2.4l0,0.1c-0.1,0.8-0.3,1.6-0.8,2.3c-0.5,0.7-1.1,1.2-1.8,1.5c-0.8,0.4-1.6,0.6-2.6,0.6
			C24.2,15,23.2,14.8,22.3,14.3z"/>
		<path d="M34.5,14.3c-0.9-0.5-1.5-1.2-2-2.1s-0.7-2-0.7-3.3v0c0-1.3,0.2-2.4,0.7-3.3c0.5-0.9,1.1-1.6,2-2.1
			c0.9-0.5,1.9-0.8,3.1-0.8c1.2,0,2.2,0.3,3.1,0.8c0.9,0.5,1.5,1.2,2,2.1c0.5,0.9,0.7,2,0.7,3.3v0c0,1.3-0.2,2.4-0.7,3.3
			s-1.1,1.6-2,2.1c-0.9,0.5-1.9,0.8-3.1,0.8C36.4,15,35.3,14.8,34.5,14.3z M39.3,12.4c0.5-0.3,0.8-0.8,1.1-1.4s0.4-1.3,0.4-2.1v0
			c0-0.8-0.1-1.5-0.4-2.2c-0.3-0.6-0.6-1.1-1.1-1.4s-1-0.5-1.7-0.5s-1.2,0.2-1.7,0.5c-0.5,0.3-0.9,0.8-1.1,1.4
			c-0.3,0.6-0.4,1.3-0.4,2.2v0c0,0.8,0.1,1.5,0.4,2.2c0.3,0.6,0.6,1.1,1.1,1.4s1.1,0.5,1.7,0.5C38.2,12.9,38.8,12.7,39.3,12.4z"/>
		<path d="M44.9,2.9h2.5v9.9h5.2v2.1h-7.7V2.9z"/>
		<path d="M57.6,2.9h2.2v2.3H59l-3,9.7h-2.6L57.6,2.9z M56.3,10.1h5.6l0.6,1.9h-6.8L56.3,10.1z M59.1,5.2V2.9h1.5l4.2,12h-2.6
			L59.1,5.2z"/>
		<path d="M67.8,14.6c-0.7-0.3-1.3-0.7-1.7-1.2c-0.4-0.5-0.6-1.2-0.7-1.9l0-0.1h2.4l0,0.1c0.1,0.3,0.2,0.6,0.4,0.8
			c0.2,0.2,0.5,0.4,0.9,0.5c0.4,0.1,0.8,0.2,1.2,0.2c0.5,0,0.9-0.1,1.2-0.2c0.3-0.1,0.6-0.3,0.8-0.5s0.3-0.5,0.3-0.8v0
			c0-0.4-0.2-0.7-0.5-1c-0.3-0.2-0.8-0.4-1.6-0.6l-1.3-0.3c-1.2-0.2-2.1-0.6-2.7-1.2c-0.6-0.6-0.9-1.3-0.9-2.2v0
			c0-0.7,0.2-1.4,0.6-1.9s0.9-1,1.6-1.3c0.7-0.3,1.5-0.5,2.4-0.5c0.9,0,1.7,0.1,2.4,0.4c0.7,0.3,1.2,0.7,1.6,1.2
			c0.4,0.5,0.6,1.1,0.6,1.8l0,0.2h-2.4l0-0.1c0-0.3-0.2-0.6-0.4-0.8C72,5.2,71.7,5,71.4,4.9s-0.7-0.2-1.1-0.2
			c-0.4,0-0.8,0.1-1.1,0.2s-0.5,0.3-0.7,0.5c-0.2,0.2-0.2,0.5-0.2,0.8v0c0,0.4,0.2,0.7,0.5,0.9s0.8,0.4,1.5,0.6l1.3,0.3
			c1.3,0.2,2.2,0.6,2.8,1.2c0.6,0.5,0.9,1.3,0.9,2.2v0c0,0.8-0.2,1.4-0.6,2c-0.4,0.6-0.9,1-1.7,1.3c-0.7,0.3-1.6,0.5-2.6,0.5
			C69.4,15,68.5,14.9,67.8,14.6z"/>
		<path d="M79.3,2.9H82l2.7,9.4h0l2.7-9.4h2.8l-4,12h-3.1L79.3,2.9z"/>
		<path d="M91.6,2.9h2.5v12h-2.5V2.9z"/>
		<path d="M95.3,2.9h2.8l2.7,9.4h0l2.7-9.4h2.8l-4,12h-3.1L95.3,2.9z"/>
		<path d="M111,2.9h2.2v2.3h-0.8l-3,9.7h-2.6L111,2.9z M109.7,10.1h5.6l0.6,1.9h-6.8L109.7,10.1z M112.5,5.2V2.9h1.5l4.2,12h-2.6
			L112.5,5.2z"/>
		<path d="M119.4,2.9h4.9c0.9,0,1.7,0.2,2.3,0.5c0.6,0.3,1.1,0.7,1.5,1.3c0.3,0.6,0.5,1.3,0.5,2.1v0c0,0.8-0.2,1.5-0.6,2.1
			c-0.4,0.6-0.9,1-1.6,1.3l2.5,4.7h-2.8l-2.2-4.3c0,0,0,0-0.1,0c0,0,0,0-0.1,0h-1.9v4.3h-2.5V2.9z M124,8.6c0.6,0,1.1-0.2,1.5-0.5
			s0.5-0.8,0.5-1.4v0c0-0.6-0.2-1-0.6-1.4c-0.4-0.3-0.9-0.5-1.5-0.5h-2.1v3.8H124z"/>
		<path d="M137,2.9h2.2v2.3h-0.8l-3,9.7h-2.6L137,2.9z M135.7,10.1h5.6l0.6,1.9h-6.8L135.7,10.1z M138.5,5.2V2.9h1.5l4.2,12h-2.6
			L138.5,5.2z"/>
		<path d="M145.4,2.9h4.9c0.9,0,1.7,0.2,2.3,0.5c0.6,0.3,1.1,0.7,1.5,1.3c0.3,0.6,0.5,1.3,0.5,2.1v0c0,0.8-0.2,1.5-0.6,2.1
			c-0.4,0.6-0.9,1-1.6,1.3l2.5,4.7h-2.8l-2.2-4.3c0,0,0,0-0.1,0c0,0,0,0-0.1,0h-1.9v4.3h-2.5V2.9z M150.1,8.6c0.6,0,1.1-0.2,1.5-0.5
			s0.5-0.8,0.5-1.4v0c0-0.6-0.2-1-0.6-1.4c-0.4-0.3-0.9-0.5-1.5-0.5h-2.1v3.8H150.1z"/>
		<path d="M158.6,14.3c-0.9-0.5-1.5-1.2-2-2.1c-0.5-0.9-0.7-2-0.7-3.3v0c0-1.3,0.2-2.4,0.7-3.3c0.5-0.9,1.1-1.6,2-2.1
			s1.9-0.8,3.1-0.8c1.2,0,2.2,0.3,3.1,0.8c0.9,0.5,1.5,1.2,2,2.1c0.5,0.9,0.7,2,0.7,3.3v0c0,1.3-0.2,2.4-0.7,3.3s-1.1,1.6-2,2.1
			s-1.9,0.8-3.1,0.8C160.5,15,159.5,14.8,158.6,14.3z M163.4,12.4c0.5-0.3,0.8-0.8,1.1-1.4c0.3-0.6,0.4-1.3,0.4-2.1v0
			c0-0.8-0.1-1.5-0.4-2.2c-0.3-0.6-0.6-1.1-1.1-1.4s-1-0.5-1.7-0.5c-0.7,0-1.2,0.2-1.7,0.5s-0.9,0.8-1.1,1.4
			c-0.3,0.6-0.4,1.3-0.4,2.2v0c0,0.8,0.1,1.5,0.4,2.2c0.3,0.6,0.6,1.1,1.1,1.4c0.5,0.3,1.1,0.5,1.7,0.5
			C162.3,12.9,162.9,12.7,163.4,12.4z M160.9,10.7h2.4L167,16h-2.4L160.9,10.7z"/>
		<path d="M171.4,14.5c-0.8-0.4-1.3-0.9-1.7-1.6c-0.4-0.7-0.6-1.4-0.6-2.3V2.9h2.5v7.5c0,0.8,0.2,1.4,0.7,1.9
			c0.4,0.5,1.1,0.7,1.9,0.7c0.8,0,1.4-0.2,1.9-0.7s0.6-1.1,0.6-1.9V2.9h2.5v7.7c0,0.9-0.2,1.7-0.6,2.3c-0.4,0.7-1,1.2-1.7,1.6
			s-1.6,0.6-2.7,0.6C173.1,15,172.2,14.9,171.4,14.5z"/>
		<path d="M181.1,2.9h2.5v12h-2.5V2.9z"/>
		<path d="M188.4,4.9H185V2.9h9.4v2.1H191v9.9h-2.5V4.9z"/>
		<path d="M195.8,2.9h7.9v2.1h-5.4v2.9h5.1v2h-5.1v3h5.4v2.1h-7.9V2.9z"/>
		<path d="M207.8,14.3c-0.9-0.5-1.5-1.2-2-2.1s-0.7-2-0.7-3.3v0c0-1.3,0.2-2.4,0.7-3.3c0.5-0.9,1.1-1.6,2-2.1c0.9-0.5,1.9-0.7,3-0.7
			c1,0,1.8,0.2,2.6,0.6s1.4,0.9,1.8,1.6c0.5,0.7,0.7,1.4,0.8,2.3l0,0.1h-2.4l0-0.1c-0.1-0.4-0.3-0.8-0.5-1.2
			c-0.2-0.3-0.6-0.6-0.9-0.8c-0.4-0.2-0.8-0.3-1.3-0.3c-0.6,0-1.2,0.2-1.7,0.5c-0.5,0.3-0.8,0.8-1.1,1.4c-0.3,0.6-0.4,1.3-0.4,2.2v0
			c0,0.8,0.1,1.6,0.4,2.2c0.3,0.6,0.6,1.1,1.1,1.4c0.5,0.3,1,0.5,1.7,0.5c0.5,0,0.9-0.1,1.3-0.3c0.4-0.2,0.7-0.4,0.9-0.8
			c0.3-0.3,0.4-0.7,0.5-1.2l0-0.1h2.4l0,0.1c-0.1,0.8-0.3,1.6-0.8,2.3c-0.5,0.7-1.1,1.2-1.8,1.5c-0.8,0.4-1.6,0.6-2.6,0.6
			C209.7,15,208.7,14.8,207.8,14.3z"/>
		<path d="M220.5,4.9h-3.5V2.9h9.4v2.1H223v9.9h-2.5V4.9z"/>
		<path d="M230.2,14.5c-0.8-0.4-1.3-0.9-1.7-1.6c-0.4-0.7-0.6-1.4-0.6-2.3V2.9h2.5v7.5c0,0.8,0.2,1.4,0.7,1.9
			c0.4,0.5,1.1,0.7,1.9,0.7c0.8,0,1.4-0.2,1.9-0.7s0.6-1.1,0.6-1.9V2.9h2.5v7.7c0,0.9-0.2,1.7-0.6,2.3c-0.4,0.7-1,1.2-1.7,1.6
			s-1.6,0.6-2.7,0.6C231.9,15,231,14.9,230.2,14.5z"/>
		<path d="M239.9,2.9h4.9c0.9,0,1.7,0.2,2.3,0.5c0.6,0.3,1.1,0.7,1.5,1.3c0.3,0.6,0.5,1.3,0.5,2.1v0c0,0.8-0.2,1.5-0.6,2.1
			c-0.4,0.6-0.9,1-1.6,1.3l2.5,4.7h-2.8l-2.2-4.3c0,0,0,0-0.1,0s0,0-0.1,0h-1.9v4.3h-2.5V2.9z M244.6,8.6c0.6,0,1.1-0.2,1.5-0.5
			c0.4-0.3,0.5-0.8,0.5-1.4v0c0-0.6-0.2-1-0.6-1.4c-0.4-0.3-0.9-0.5-1.5-0.5h-2.1v3.8H244.6z"/>
		<path d="M254.2,2.9h2.2v2.3h-0.8l-3,9.7H250L254.2,2.9z M252.9,10.1h5.6l0.6,1.9h-6.8L252.9,10.1z M255.7,5.2V2.9h1.5l4.2,12h-2.6
			L255.7,5.2z"/>
	</g>
</g>
</svg>
